<mxfile host="app.diagrams.net" modified="2023-05-18T06:01:50.991Z" agent="Mozilla/5.0 (Windows NT 10.0; Win64; x64) AppleWebKit/537.36 (KHTML, like Gecko) Chrome/112.0.0.0 Safari/537.36 Edg/112.0.1722.39" version="21.2.9" etag="ybW2zOD8KpWoRmPMz2BG" type="github">
  <diagram name="Page-1" id="ADhBP0xkcyTer7fD7_P3">
    <mxGraphModel>
      <root>
        <mxCell id="0" />
        <mxCell id="1" parent="0" />
      </root>
    </mxGraphModel>
  </diagram>
</mxfile>
